<mxfile host="app.diagrams.net" modified="2024-10-19T12:42:00.147Z" agent="Mozilla/5.0 (Windows NT 10.0; Win64; x64) AppleWebKit/537.36 (KHTML, like Gecko) Chrome/129.0.0.0 Safari/537.36" etag="yQ7-NsxvjVQNuBfrHg-M" version="24.4.4" type="device">
  <diagram name="Page-1" id="SCfBk810Yw9hNmYwF9w-">
    <mxGraphModel dx="1000" dy="505" grid="1" gridSize="10" guides="1" tooltips="1" connect="1" arrows="1" fold="1" page="1" pageScale="1" pageWidth="850" pageHeight="1100" math="0" shadow="0">
      <root>
        <mxCell id="0" />
        <mxCell id="1" parent="0" />
        <mxCell id="MxErGI7ZO-yGuUe_Lzzk-43" style="edgeStyle=orthogonalEdgeStyle;rounded=0;orthogonalLoop=1;jettySize=auto;html=1;exitX=0.5;exitY=1;exitDx=0;exitDy=0;entryX=0.5;entryY=0;entryDx=0;entryDy=0;" edge="1" parent="1" source="MxErGI7ZO-yGuUe_Lzzk-8" target="MxErGI7ZO-yGuUe_Lzzk-41">
          <mxGeometry relative="1" as="geometry" />
        </mxCell>
        <mxCell id="MxErGI7ZO-yGuUe_Lzzk-8" value="&lt;p style=&quot;margin:0px;margin-top:4px;text-align:center;&quot;&gt;&lt;b&gt;Server&lt;/b&gt;&lt;/p&gt;&lt;hr&gt;&amp;nbsp;+handleRequest() : void&lt;hr&gt;" style="verticalAlign=top;align=left;overflow=fill;html=1;whiteSpace=wrap;" vertex="1" parent="1">
          <mxGeometry x="120" y="30" width="140" height="50" as="geometry" />
        </mxCell>
        <mxCell id="MxErGI7ZO-yGuUe_Lzzk-10" value="&lt;p style=&quot;margin:0px;margin-top:4px;text-align:center;&quot;&gt;&lt;b style=&quot;background-color: initial;&quot;&gt;&lt;i&gt;Cell&lt;/i&gt;&lt;/b&gt;&lt;/p&gt;&lt;hr&gt;&amp;nbsp;#id : int&lt;div&gt;&amp;nbsp;#T_starve : int&lt;div&gt;&amp;nbsp;#T_full : int&lt;/div&gt;&lt;div&gt;&amp;nbsp;#State : State_en&lt;/div&gt;&lt;div&gt;&amp;nbsp;#x : int&lt;/div&gt;&lt;div&gt;&amp;nbsp;#y : int&lt;br&gt;&amp;nbsp;#food_eaten : int&lt;br&gt;&lt;hr&gt;&amp;nbsp;+foodRequest(Resource resource) : void&lt;/div&gt;&lt;div&gt;&amp;nbsp;+dieRequest() : void&lt;/div&gt;&lt;div&gt;&amp;nbsp;+reproduceRequest() : void&lt;/div&gt;&lt;div&gt;&amp;nbsp;+moveRequest(int x, int y) : void&lt;br&gt;&lt;hr&gt;&lt;/div&gt;&lt;/div&gt;" style="verticalAlign=top;align=left;overflow=fill;html=1;whiteSpace=wrap;" vertex="1" parent="1">
          <mxGeometry x="550" y="25" width="230" height="210" as="geometry" />
        </mxCell>
        <mxCell id="MxErGI7ZO-yGuUe_Lzzk-27" value="&lt;p style=&quot;margin:0px;margin-top:4px;text-align:center;&quot;&gt;&amp;lt;&amp;lt;enumeration&amp;gt;&amp;gt;&lt;/p&gt;&lt;div style=&quot;text-align: center;&quot;&gt;State_en&lt;/div&gt;&lt;hr&gt;&lt;div style=&quot;text-align: center;&quot;&gt;&lt;span style=&quot;background-color: initial;&quot;&gt;&amp;nbsp;&lt;/span&gt;&lt;span style=&quot;background-color: initial;&quot;&gt;Hungry&lt;/span&gt;&lt;/div&gt;&lt;div style=&quot;text-align: center;&quot;&gt;Full&lt;/div&gt;&lt;div&gt;&lt;/div&gt;" style="verticalAlign=top;align=left;overflow=fill;html=1;whiteSpace=wrap;" vertex="1" parent="1">
          <mxGeometry x="870" y="90" width="140" height="80" as="geometry" />
        </mxCell>
        <mxCell id="MxErGI7ZO-yGuUe_Lzzk-28" value="" style="endArrow=block;endFill=1;html=1;edgeStyle=orthogonalEdgeStyle;align=left;verticalAlign=top;rounded=0;exitX=1;exitY=0.5;exitDx=0;exitDy=0;entryX=0;entryY=0.5;entryDx=0;entryDy=0;" edge="1" parent="1" source="MxErGI7ZO-yGuUe_Lzzk-10" target="MxErGI7ZO-yGuUe_Lzzk-27">
          <mxGeometry x="-1" relative="1" as="geometry">
            <mxPoint x="560" y="260" as="sourcePoint" />
            <mxPoint x="720" y="260" as="targetPoint" />
          </mxGeometry>
        </mxCell>
        <mxCell id="MxErGI7ZO-yGuUe_Lzzk-30" value="&lt;p style=&quot;margin:0px;margin-top:4px;text-align:center;&quot;&gt;&lt;b&gt;Resource&lt;/b&gt;&lt;/p&gt;&lt;hr&gt;&amp;nbsp;#id : int&lt;div&gt;&lt;div&gt;&amp;nbsp;#x : int&lt;/div&gt;&lt;div&gt;&amp;nbsp;#y : int&lt;br&gt;&lt;br&gt;&lt;/div&gt;&lt;/div&gt;" style="verticalAlign=top;align=left;overflow=fill;html=1;whiteSpace=wrap;" vertex="1" parent="1">
          <mxGeometry x="360" y="87.5" width="90" height="85" as="geometry" />
        </mxCell>
        <mxCell id="MxErGI7ZO-yGuUe_Lzzk-32" value="" style="endArrow=block;endFill=1;html=1;edgeStyle=orthogonalEdgeStyle;align=left;verticalAlign=top;rounded=0;exitX=0;exitY=0.5;exitDx=0;exitDy=0;entryX=1;entryY=0.5;entryDx=0;entryDy=0;" edge="1" parent="1" source="MxErGI7ZO-yGuUe_Lzzk-10" target="MxErGI7ZO-yGuUe_Lzzk-30">
          <mxGeometry x="-1" relative="1" as="geometry">
            <mxPoint x="880" y="90" as="sourcePoint" />
            <mxPoint x="790" y="140" as="targetPoint" />
          </mxGeometry>
        </mxCell>
        <mxCell id="MxErGI7ZO-yGuUe_Lzzk-33" value="Extends" style="endArrow=block;endSize=16;endFill=0;html=1;rounded=0;entryX=0.5;entryY=1;entryDx=0;entryDy=0;" edge="1" parent="1" source="MxErGI7ZO-yGuUe_Lzzk-35" target="MxErGI7ZO-yGuUe_Lzzk-10">
          <mxGeometry width="160" relative="1" as="geometry">
            <mxPoint x="520" y="320" as="sourcePoint" />
            <mxPoint x="720" y="230" as="targetPoint" />
            <Array as="points">
              <mxPoint x="520" y="280" />
              <mxPoint x="665" y="280" />
            </Array>
          </mxGeometry>
        </mxCell>
        <mxCell id="MxErGI7ZO-yGuUe_Lzzk-34" value="Extends" style="endArrow=block;endSize=16;endFill=0;html=1;rounded=0;exitX=0.5;exitY=0;exitDx=0;exitDy=0;entryX=0.5;entryY=1;entryDx=0;entryDy=0;" edge="1" parent="1" source="MxErGI7ZO-yGuUe_Lzzk-40" target="MxErGI7ZO-yGuUe_Lzzk-10">
          <mxGeometry width="160" relative="1" as="geometry">
            <mxPoint x="800.1250000000002" y="322.45500000000004" as="sourcePoint" />
            <mxPoint x="660" y="240" as="targetPoint" />
            <Array as="points">
              <mxPoint x="800" y="280" />
              <mxPoint x="665" y="280" />
            </Array>
          </mxGeometry>
        </mxCell>
        <mxCell id="MxErGI7ZO-yGuUe_Lzzk-35" value="&lt;p style=&quot;margin:0px;margin-top:4px;text-align:center;&quot;&gt;&lt;b&gt;Asexual&lt;/b&gt;&lt;/p&gt;&lt;hr&gt;&amp;nbsp;+reproduceRequest() : void&lt;hr&gt;" style="verticalAlign=top;align=left;overflow=fill;html=1;whiteSpace=wrap;" vertex="1" parent="1">
          <mxGeometry x="440" y="322" width="160" height="48" as="geometry" />
        </mxCell>
        <mxCell id="MxErGI7ZO-yGuUe_Lzzk-40" value="&lt;p style=&quot;margin:0px;margin-top:4px;text-align:center;&quot;&gt;&lt;b&gt;Sexual&lt;/b&gt;&lt;/p&gt;&lt;hr&gt;&amp;nbsp;+reproduceRequest(Cell cellToReproduceWith) : void&lt;hr&gt;" style="verticalAlign=top;align=left;overflow=fill;html=1;whiteSpace=wrap;" vertex="1" parent="1">
          <mxGeometry x="650" y="322" width="300" height="48" as="geometry" />
        </mxCell>
        <mxCell id="MxErGI7ZO-yGuUe_Lzzk-41" value="&lt;p style=&quot;margin:0px;margin-top:4px;text-align:center;&quot;&gt;&lt;b&gt;GameOfLife&lt;/b&gt;&lt;/p&gt;&lt;hr&gt;&amp;nbsp;#cells : Cell[]&lt;div&gt;&amp;nbsp;#resources : Resource[]&lt;br&gt;&lt;div&gt;&lt;div&gt;&lt;hr&gt;&amp;nbsp;+feedCell(Cell cell) : void&lt;/div&gt;&lt;div&gt;&amp;nbsp;+killCell(Cell cell) : void&lt;/div&gt;&lt;div&gt;&amp;nbsp;+reproduceCell(Cell cell) : void&lt;/div&gt;&lt;div&gt;&amp;nbsp;+moveCell(Cell cell) : void&lt;/div&gt;&lt;div&gt;&lt;hr&gt;&lt;/div&gt;&lt;/div&gt;&lt;/div&gt;" style="verticalAlign=top;align=left;overflow=fill;html=1;whiteSpace=wrap;" vertex="1" parent="1">
          <mxGeometry x="75" y="235" width="230" height="135" as="geometry" />
        </mxCell>
        <mxCell id="MxErGI7ZO-yGuUe_Lzzk-42" style="edgeStyle=orthogonalEdgeStyle;rounded=0;orthogonalLoop=1;jettySize=auto;html=1;exitX=0.009;exitY=0.143;exitDx=0;exitDy=0;entryX=1;entryY=0.5;entryDx=0;entryDy=0;exitPerimeter=0;" edge="1" parent="1" source="MxErGI7ZO-yGuUe_Lzzk-10" target="MxErGI7ZO-yGuUe_Lzzk-8">
          <mxGeometry relative="1" as="geometry" />
        </mxCell>
      </root>
    </mxGraphModel>
  </diagram>
</mxfile>
